<svg width="32" height="34" viewBox="0 0 32 34" fill="none" xmlns="http://www.w3.org/2000/svg">
    <path d="M0.000135882 17.3125C0.110578 20.5212 2.676 23.0345 5.84045 23.0345C10.4416 23.0345 12.306 17.9596 11.5887 16.9839L6.98688 7.28881C7.35208 6.94131 7.56605 6.44317 7.51118 5.87704L13.1334 3.85568C13.3376 4.56952 13.7973 5.18035 14.4301 5.57234V26.8489C11.5722 27.5248 9.47283 30.0092 9.23883 32.965H7.02999C6.74804 32.965 6.51952 33.1967 6.51952 33.4825C6.51952 33.7683 6.74804 34 7.02999 34H24.9184C25.2003 34 25.4288 33.7683 25.4288 33.4825C25.4288 33.1967 25.2003 32.965 24.9184 32.965H22.7071C22.4729 30.0025 20.373 27.5153 17.518 26.8481V5.57222C18.1552 5.17805 18.6169 4.56284 18.8171 3.85624L24.4369 5.87692C24.3828 6.44907 24.5965 6.94647 24.96 7.29086C18.837 20.1995 20.622 16.3558 20.311 17.0931C20.2928 17.1368 20.2735 17.2157 20.2723 17.2827C20.2721 17.2928 20.2671 17.3022 20.2673 17.3124C20.378 20.5211 22.9432 23.0344 26.1076 23.0344C30.7276 23.0344 32.5536 17.9334 31.8561 16.9838L27.2555 7.29054C27.8217 6.75418 27.9756 5.88119 27.5434 5.15769C28.2062 4.35824 29.1182 3.92099 28.67 3.46666C28.5204 3.31504 28.2783 3.31504 28.1287 3.46666L27.0081 4.60277C26.182 4.07221 25.1644 4.35562 24.6831 5.14178L18.9394 3.07665C18.9398 3.05247 18.9418 3.0324 18.9418 3.00629C18.9418 1.34863 17.6117 0 15.9765 0C14.3385 0 13.006 1.34863 13.006 3.00629C13.006 3.03264 13.0077 3.05223 13.0084 3.07665L7.26424 5.14178C6.96059 4.64677 6.42912 4.33094 5.84021 4.33094C5.52152 4.33094 5.21026 4.4296 4.94048 4.60322L3.81914 3.46669C3.66958 3.31507 3.42723 3.31507 3.27791 3.46669C3.12835 3.61831 3.12835 3.86376 3.27791 4.01538L4.40425 5.15699C3.97799 5.8699 4.11801 6.74018 4.69383 7.28792L0.0516734 17.0679C0.0335444 17.1056 -0.00248808 17.2526 0.000135882 17.3125ZM5.84045 21.9998C3.40762 21.9998 1.40396 20.1994 1.06712 17.8121H10.614C10.2772 20.1993 8.27303 21.9998 5.84045 21.9998ZM16.7528 5.91159V26.7096C16.2373 26.6479 15.7039 26.6482 15.1961 26.7091V5.9111C15.7058 6.05136 16.2428 6.0533 16.7528 5.91159ZM21.6885 32.9652H10.2602C10.4987 30.4077 12.3836 28.2768 14.9143 27.7963C15.5841 27.6594 16.35 27.656 17.0423 27.798C19.5662 28.2727 21.4502 30.4036 21.6885 32.9652ZM26.1081 22.0004C23.6753 22.0004 21.6716 20.2 21.3348 17.8127H30.8817C30.5448 20.2 28.5409 22.0004 26.1081 22.0004ZM21.5917 16.7756L25.882 7.73608C26.0313 7.75688 26.1849 7.75688 26.3342 7.73608L30.6245 16.7756H21.5917ZM26.1081 5.36632C26.4862 5.36632 26.7717 5.68286 26.7717 6.04388C26.7717 6.93211 25.4447 6.93403 25.4447 6.04388C25.4447 5.97085 25.7391 5.36632 26.1081 5.36632ZM15.9768 0.776534C17.1897 0.776534 18.1765 1.77694 18.1765 3.00658C18.1765 3.09581 18.1739 3.18504 18.1539 3.29532C17.8388 5.88281 14.1112 5.8799 13.7906 3.27017C13.7746 3.18505 13.7718 3.09581 13.7718 3.00658C13.772 1.77719 14.761 0.776534 15.9768 0.776534ZM5.69652 6.69996C4.91532 6.52246 5.06987 5.36607 5.84036 5.36607C6.80836 5.36631 6.65851 6.91639 5.69652 6.69996ZM5.61422 7.73615C5.76354 7.75694 5.91716 7.75694 6.06648 7.73615L10.3568 16.7757H1.32344L5.61422 7.73615Z" fill="url(#paint0_linear_308_1839)"/>
    <defs>
        <linearGradient id="paint0_linear_308_1839" x1="-3.18184e-07" y1="7.87038" x2="35.2043" y2="9.54771" gradientUnits="userSpaceOnUse">
            <stop stop-color="#C811D6"/>
            <stop offset="0.5625" stop-color="#FF0066"/>
            <stop offset="1" stop-color="#FFE600"/>
        </linearGradient>
    </defs>
</svg>
