<svg width="51" height="51" viewBox="0 0 51 51" fill="none" xmlns="http://www.w3.org/2000/svg">
    <path d="M41.0955 19.359H40.771C38.7493 19.359 37.105 21.0033 37.105 23.0246V28.6459C37.105 28.9951 37.388 29.2781 37.7372 29.2781H44.1295C44.4787 29.2781 44.7617 28.9951 44.7617 28.6459V23.0246C44.7617 21.0038 43.1169 19.359 41.0956 19.359H41.0955ZM40.7715 20.6229H41.0959C42.4202 20.6229 43.4977 21.7003 43.4977 23.0246V23.6863H38.3693V23.0246C38.3693 21.7003 39.4467 20.6229 40.7715 20.6229ZM38.3693 28.0137V24.9502H43.4977V28.0137H38.3693Z" fill="#FF005C"/>
    <path d="M41.0955 33.333H40.771C38.7493 33.333 37.105 34.9773 37.105 36.999V42.6199C37.105 42.969 37.388 43.2521 37.7372 43.2521H44.1295C44.4787 43.2521 44.7617 42.969 44.7617 42.6199V36.999C44.7617 34.9773 43.1169 33.333 41.0956 33.333H41.0955ZM40.7715 34.5969H41.0959C42.4202 34.5969 43.4977 35.6743 43.4977 36.999V37.6603H38.3693V36.999C38.3693 35.6743 39.4467 34.5969 40.7715 34.5969ZM38.3693 41.9877V38.9241H43.4977V41.9877H38.3693Z" fill="#FF005C"/>
    <path d="M10.0486 19.359H9.72416C7.70243 19.359 6.05811 21.0033 6.05811 23.0246V28.6459C6.05811 28.9951 6.34113 29.2781 6.69029 29.2781H13.0826C13.4318 29.2781 13.7148 28.9951 13.7148 28.6459V23.0246C13.7144 21.0038 12.07 19.359 10.0488 19.359H10.0486ZM9.72416 20.6229H10.0486C11.3729 20.6229 12.4503 21.7003 12.4503 23.0246V23.6863H7.32199V23.0246C7.32199 21.7003 8.39987 20.6229 9.72416 20.6229ZM7.32199 28.0137V24.9502H12.4503V28.0137H7.32199Z" fill="#FF005C"/>
    <path d="M10.0486 33.333H9.72416C7.70243 33.333 6.05811 34.9773 6.05811 36.999V42.6199C6.05811 42.969 6.34113 43.2521 6.69029 43.2521H13.0826C13.4318 43.2521 13.7148 42.969 13.7148 42.6199V36.999C13.7144 34.9773 12.07 33.333 10.0488 33.333H10.0486ZM9.72416 34.5969H10.0486C11.3729 34.5969 12.4503 35.6743 12.4503 36.999V37.6603H7.32199V36.999C7.32199 35.6743 8.39987 34.5969 9.72416 34.5969ZM7.32199 41.9877V38.9241H12.4503V41.9877H7.32199Z" fill="#FF005C"/>
    <path d="M49.147 50.248V14.54H50.1477C50.3315 14.54 50.5065 14.4598 50.6265 14.3205C50.7464 14.1811 50.7997 13.996 50.7724 13.8144L48.826 0.858363C48.7802 0.548887 48.5144 0.320091 48.2018 0.320091H2.79825C2.48525 0.320091 2.21986 0.548887 2.17356 0.858363L0.22723 13.8144C0.199897 13.996 0.25324 14.1811 0.373154 14.3205C0.493065 14.4598 0.668084 14.54 0.852357 14.54H1.85308V50.248C1.85308 50.5972 2.13611 50.8802 2.48526 50.8802H48.5152C48.8639 50.8802 49.147 50.5972 49.147 50.248ZM3.34276 1.584H47.6584L49.4147 13.276H33.9137V11.2591C33.9137 11.0691 33.8287 10.8897 33.6818 10.7698L25.9005 4.41278C25.6677 4.22277 25.3331 4.22277 25.1008 4.41278L17.3194 10.7698C17.1717 10.8897 17.0866 11.0691 17.0866 11.2591V13.276H1.58681L3.34276 1.584ZM28.9636 49.616H22.037V36.6036C22.037 34.6938 23.591 33.1402 25.5003 33.1402C27.4101 33.1402 28.9637 34.6943 28.9637 36.6036L28.9636 49.616ZM25.5002 31.876C22.8935 31.876 20.773 33.9965 20.773 36.6032V49.6157H18.3505V11.558L25.5002 5.71762L32.65 11.558V49.6157H30.2279L30.2275 36.6032C30.2275 33.9965 28.107 31.876 25.5002 31.876ZM3.11728 14.54H17.0867V49.616H3.11728V14.54ZM33.9137 49.616V14.54H47.8832V49.616H33.9137Z" fill="#FF005C"/>
</svg>
