<svg width="35" height="27" viewBox="0 0 35 27" fill="none" xmlns="http://www.w3.org/2000/svg">
    <path d="M23.008 10.0685C22.9815 11.0185 23.3358 11.9401 23.9924 12.6274C24.649 13.3146 25.5529 13.7111 26.5031 13.7282C27.4534 13.7455 28.3713 13.3821 29.0523 12.7189C29.7333 12.0558 30.1209 11.148 30.1289 10.1977C30.1369 9.24714 29.7646 8.333 29.095 7.65849C28.4253 6.984 27.5137 6.6052 26.5632 6.60636C25.6317 6.59071 24.7326 6.9476 24.065 7.59758C23.3976 8.24732 23.0171 9.13706 23.008 10.0685ZM28.9939 10.0685C29.0204 10.7183 28.7853 11.3515 28.3416 11.8265C27.8976 12.3018 27.2821 12.5793 26.632 12.5972C25.982 12.6151 25.3519 12.3718 24.8829 11.9216C24.4136 11.4716 24.1443 10.852 24.1349 10.202C24.1258 9.55167 24.3774 8.92501 24.8339 8.46193C25.2901 7.9986 25.9131 7.73763 26.5631 7.73706C27.194 7.72596 27.8036 7.96502 28.259 8.40188C28.7143 8.83874 28.9785 9.43788 28.9939 10.0685Z" fill="url(#paint0_linear_308_1838)"/>
    <path d="M25.7241 10.0685C25.7124 10.4132 25.9111 10.7308 26.2264 10.8703C26.542 11.01 26.9106 10.944 27.1579 10.7038C27.4052 10.4633 27.4817 10.0964 27.3508 9.77738C27.2202 9.45807 26.9083 9.25031 26.5633 9.25259C26.3439 9.24946 26.1322 9.3337 25.9748 9.48681C25.8174 9.63964 25.7272 9.84911 25.7241 10.0685Z" fill="url(#paint1_linear_308_1838)"/>
    <path d="M5.33574 18.0945C5.71454 18.852 7.55643 22.7573 6.8629 25.3629C6.7909 25.6623 6.9645 25.9662 7.25934 26.0564H7.40506C7.65977 26.0513 7.88148 25.8814 7.95291 25.6366C8.57646 23.3052 7.52744 20.2509 6.82216 18.6016C8.99506 19.1734 11.304 18.9019 13.2848 17.8411C15.2656 16.7804 16.7714 15.0094 17.5 12.8837C18.2251 15.0125 19.7295 16.7876 21.7109 17.8517C23.6919 18.9158 26.0026 19.1902 28.1778 18.619C27.4726 20.2685 26.4293 23.2818 27.0471 25.654C27.1185 25.8984 27.3402 26.0686 27.5949 26.0738H27.7407C28.0355 25.9838 28.2091 25.6799 28.1371 25.3802C27.4435 22.7807 29.3028 18.8698 29.6643 18.1118C31.2611 17.3667 32.611 16.1796 33.5539 14.6912C34.497 13.2028 34.994 11.475 34.9857 9.71307C34.9857 7.10187 33.9483 5.47001 32.8467 3.74446C32.2422 2.84795 31.7139 1.90227 31.2671 0.917531C31.2424 0.737953 31.1356 0.580283 30.9782 0.490348C30.8206 0.400697 30.6305 0.389317 30.4634 0.459896C30.2964 0.530192 30.1714 0.674198 30.1256 0.849514C30.0798 1.02511 30.1182 1.21181 30.2295 1.35468C30.6982 2.39828 31.2538 3.40065 31.8907 4.35064C32.9457 6.0002 33.855 7.42798 33.855 9.71307C33.9128 11.8441 33.1067 13.908 31.62 15.4358C30.1333 16.9635 28.0918 17.8253 25.9602 17.8253C23.8282 17.8253 21.7872 16.9635 20.3001 15.4358C18.8133 13.908 18.0073 11.8441 18.0654 9.71307C18.0002 9.4538 17.7671 9.27194 17.4999 9.27194C17.2327 9.27194 16.9996 9.4538 16.9344 9.71307C16.9546 11.8294 16.1344 13.8674 14.6539 15.3797C13.1732 16.892 11.153 17.7552 9.03676 17.7797C6.92106 17.7552 4.90153 16.8917 3.42166 15.3791C1.942 13.8667 1.12323 11.8288 1.14487 9.713C1.14487 7.43395 2.05413 6.00012 3.10917 4.35056C3.74611 3.40058 4.30163 2.39821 4.77039 1.3546C4.88166 1.21174 4.92009 1.02504 4.87427 0.849441C4.82845 0.674132 4.70351 0.530123 4.53645 0.459823C4.36939 0.389243 4.17929 0.400627 4.02162 0.490275C3.86423 0.58021 3.75751 0.737873 3.73275 0.917458C3.28821 1.90329 2.75974 2.84905 2.15321 3.74439C1.05154 5.46965 0.0141951 7.10179 0.0141951 9.71299C0.0093569 11.4721 0.507686 13.1959 1.45057 14.681C2.39342 16.166 3.7417 17.3505 5.33574 18.0945Z" fill="url(#paint2_linear_308_1838)"/>
    <path d="M4.87528 10.0685C4.84881 11.0182 5.20314 11.9392 5.85915 12.6265C6.51515 13.3137 7.41873 13.7105 8.36871 13.7282C9.31869 13.7461 10.2363 13.3835 10.9175 12.721C11.5989 12.0587 11.9874 11.1517 11.9962 10.2014C12.0053 9.25144 11.6345 8.33701 10.9659 7.66199C10.2974 6.98692 9.38667 6.60673 8.43669 6.60644C7.50404 6.58936 6.60331 6.94539 5.93448 7.5954C5.26567 8.24571 4.88468 9.13596 4.87528 10.0685ZM10.8669 10.0685C10.8934 10.7183 10.6586 11.3515 10.2149 11.8265C9.77121 12.3018 9.15533 12.5793 8.5053 12.5972C7.85528 12.6151 7.22549 12.3718 6.75615 11.9216C6.28685 11.4716 6.0176 10.852 6.0082 10.202C5.99909 9.55167 6.25067 8.92501 6.70717 8.46193C7.16338 7.9986 7.78633 7.73763 8.43666 7.73706C9.06732 7.72596 9.6769 7.96502 10.1323 8.40188C10.5876 8.83874 10.8515 9.43788 10.8669 10.0685Z" fill="url(#paint3_linear_308_1838)"/>
    <path d="M9.27585 10.0685C9.27585 10.5193 8.8999 10.8845 8.43654 10.8845C7.97293 10.8845 7.59701 10.5193 7.59701 10.0685C7.59701 9.61775 7.97297 9.25261 8.43654 9.25261C8.89987 9.25261 9.27585 9.61775 9.27585 10.0685Z" fill="url(#paint4_linear_308_1838)"/>
    <defs>
        <linearGradient id="paint0_linear_308_1838" x1="0.0141598" y1="6.35372" x2="38.3922" y2="9.00159" gradientUnits="userSpaceOnUse">
            <stop stop-color="#C811D6"/>
            <stop offset="0.5625" stop-color="#FF0066"/>
            <stop offset="1" stop-color="#FFE600"/>
        </linearGradient>
        <linearGradient id="paint1_linear_308_1838" x1="0.0141598" y1="6.35372" x2="38.3922" y2="9.00159" gradientUnits="userSpaceOnUse">
            <stop stop-color="#C811D6"/>
            <stop offset="0.5625" stop-color="#FF0066"/>
            <stop offset="1" stop-color="#FFE600"/>
        </linearGradient>
        <linearGradient id="paint2_linear_308_1838" x1="0.0141598" y1="6.35372" x2="38.3922" y2="9.00159" gradientUnits="userSpaceOnUse">
            <stop stop-color="#C811D6"/>
            <stop offset="0.5625" stop-color="#FF0066"/>
            <stop offset="1" stop-color="#FFE600"/>
        </linearGradient>
        <linearGradient id="paint3_linear_308_1838" x1="0.0141598" y1="6.35372" x2="38.3922" y2="9.00159" gradientUnits="userSpaceOnUse">
            <stop stop-color="#C811D6"/>
            <stop offset="0.5625" stop-color="#FF0066"/>
            <stop offset="1" stop-color="#FFE600"/>
        </linearGradient>
        <linearGradient id="paint4_linear_308_1838" x1="0.0141598" y1="6.35372" x2="38.3922" y2="9.00159" gradientUnits="userSpaceOnUse">
            <stop stop-color="#C811D6"/>
            <stop offset="0.5625" stop-color="#FF0066"/>
            <stop offset="1" stop-color="#FFE600"/>
        </linearGradient>
    </defs>
</svg>
