<svg width="13" height="13" viewBox="0 0 13 13" fill="none" xmlns="http://www.w3.org/2000/svg">
<path d="M11.6794 10.6409L7.95063 6.91743L11.6794 3.19393C12.1931 2.68027 12.1931 1.84654 11.6808 1.33148C11.1658 0.81517 10.332 0.816498 9.81706 1.33016L6.08566 5.05631L2.35426 1.33016C1.83927 0.816498 1.00553 0.81517 0.490546 1.33148C-0.0231111 1.84647 -0.0231118 2.68021 0.491874 3.19393L4.22069 6.91743L0.491874 10.6409C-0.0231118 11.1546 -0.0231111 11.9883 0.490546 12.5034C0.747408 12.7615 1.08588 12.8893 1.4231 12.8893C1.76031 12.8893 2.09746 12.7602 2.35432 12.5046L6.08572 8.77849L9.81713 12.5046C10.074 12.7615 10.4111 12.8893 10.7484 12.8893C11.0856 12.8893 11.424 12.7602 11.6809 12.5034C12.1944 11.9883 12.1944 11.1546 11.6794 10.6409Z" fill="#FF005C"/>
</svg>
