<svg width="30" height="27" viewBox="0 0 30 27" fill="none" xmlns="http://www.w3.org/2000/svg">
    <path d="M4.972 26.7584C5.19445 27.0379 5.59707 27.0812 5.87217 26.8552L29.7622 7.22529C30.0373 6.99925 30.0799 6.59013 29.8575 6.31058L25.028 0.241617C24.8055 -0.0379242 24.4029 -0.0812161 24.1278 0.144826L0.237777 19.7747C-0.0373215 20.0008 -0.0799254 20.4099 0.142524 20.6894L4.972 26.7584ZM24.435 1.56528L28.4596 6.62275L23.4825 10.7123L21.4702 8.18357C21.2478 7.90403 20.8452 7.86074 20.5701 8.08678C20.295 8.31282 20.2524 8.72194 20.4748 9.00148L22.4871 11.5302L21.4917 12.3481L20.2843 10.8309C20.0618 10.5513 19.6592 10.5081 19.3841 10.7341C19.109 10.9601 19.0664 11.3693 19.2889 11.6488L20.4963 13.166L19.5008 13.984L18.2935 12.4667C18.071 12.1872 17.6684 12.1439 17.3933 12.3699C17.1182 12.596 17.0756 13.0051 17.298 13.2846L18.5054 14.8019L17.51 15.6198L16.3026 14.1025C16.0802 13.823 15.6776 13.7797 15.4025 14.0057C15.1274 14.2318 15.0848 14.6409 15.3072 14.9205L16.5146 16.4377L15.5192 17.2556L13.5069 14.7269C13.2844 14.4473 12.8818 14.404 12.6067 14.6301C12.3316 14.8561 12.289 15.2652 12.5115 15.5448L14.5237 18.0735L13.5283 18.8914L12.3209 17.3742C12.0985 17.0946 11.6959 17.0514 11.4208 17.2774C11.1457 17.5034 11.1031 17.9126 11.3255 18.1921L12.5329 19.7093L11.5375 20.5273L10.3301 19.01C10.1077 18.7305 9.70504 18.6872 9.42994 18.9132C9.15484 19.1393 9.11224 19.5484 9.33469 19.8279L10.5421 21.3452L9.54664 22.1631L8.33927 20.6458C8.11682 20.3663 7.7142 20.323 7.43911 20.549C7.16401 20.7751 7.1214 21.1842 7.34385 21.4637L8.55122 22.981L7.5558 23.7989L5.54352 21.2702C5.32107 20.9906 4.91845 20.9473 4.64335 21.1734C4.36826 21.3994 4.32565 21.8085 4.5481 22.0881L6.56038 24.6168L5.56496 25.4347L1.5404 20.3773L24.435 1.56528Z" fill="url(#paint0_linear_308_1827)"/>
    <path d="M25.1661 7.65604C25.9895 6.9795 26.1177 5.74858 25.4519 4.91193C24.7861 4.07527 23.5748 3.94502 22.7514 4.62155C21.928 5.29809 21.7999 6.529 22.4656 7.36566C23.1314 8.20232 24.3428 8.33257 25.1661 7.65604ZM23.5563 5.63305C23.8308 5.40748 24.2345 5.45089 24.4565 5.72984C24.6785 6.00879 24.6357 6.41898 24.3612 6.64454C24.0867 6.8701 23.683 6.8267 23.4611 6.54775C23.2391 6.2688 23.2818 5.85861 23.5563 5.63305Z" fill="url(#paint1_linear_308_1827)"/>
    <defs>
        <linearGradient id="paint0_linear_308_1827" x1="-2.98298e-07" y1="6.25001" x2="32.9746" y2="8.10477" gradientUnits="userSpaceOnUse">
            <stop stop-color="#C811D6"/>
            <stop offset="0.5625" stop-color="#FF0066"/>
            <stop offset="1" stop-color="#FFE600"/>
        </linearGradient>
        <linearGradient id="paint1_linear_308_1827" x1="-2.98298e-07" y1="6.25001" x2="32.9746" y2="8.10477" gradientUnits="userSpaceOnUse">
            <stop stop-color="#C811D6"/>
            <stop offset="0.5625" stop-color="#FF0066"/>
            <stop offset="1" stop-color="#FFE600"/>
        </linearGradient>
    </defs>
</svg>
